HIERARCHY
ROOT Hips
{
	OFFSET 0.000000 0.000000 0.000000
	CHANNELS 6 Xposition Yposition Zposition Zrotation Yrotation Xrotation 
	JOINT LHipJoint
	{
		OFFSET 0.000000 0.000000 0.000000
		CHANNELS 3 Zrotation Yrotation Xrotation
		JOINT LeftUpLeg
		{
			OFFSET 1.363060 -1.794630 0.839290
			CHANNELS 3 Zrotation Yrotation Xrotation
			JOINT LeftLeg
			{
				OFFSET 2.448110 -6.726130 0.000000
				CHANNELS 3 Zrotation Yrotation Xrotation
				JOINT LeftFoot
				{
					OFFSET 2.562200 -7.039590 0.000000
					CHANNELS 3 Zrotation Yrotation Xrotation
					JOINT LeftToeBase
					{
						OFFSET 0.157640 -0.433110 2.322550
						CHANNELS 3 Zrotation Yrotation Xrotation
						End Site
						{
							OFFSET 0.000000 0.000000 0.000000
						}
					}
				}
			}
		}
	}
	JOINT RHipJoint
	{
		OFFSET 0.000000 0.000000 0.000000
		CHANNELS 3 Zrotation Yrotation Xrotation
		JOINT RightUpLeg
		{
			OFFSET -1.305520 -1.794630 0.839290
			CHANNELS 3 Zrotation Yrotation Xrotation
			JOINT RightLeg
			{
				OFFSET -2.542530 -6.985550 0.000000
				CHANNELS 3 Zrotation Yrotation Xrotation
				JOINT RightFoot
				{
					OFFSET -2.568260 -7.056230 0.000000
					CHANNELS 3 Zrotation Yrotation Xrotation
					JOINT RightToeBase
					{
						OFFSET -0.164730 -0.452590 2.363150
						CHANNELS 3 Zrotation Yrotation Xrotation
						End Site
						{
							OFFSET 0.000000 0.000000 0.000000
						}
					}
				}
			}
		}
	}
}
MOTION
Frames: 16
Frame Time: 0.008333
-10.909626 16.503476 -2.478650 154.001357 87.113622 164.509850 -11.115762 5.759287 0.540445 -5.524533 11.374142 2.086623 -1.305741 1.976743 30.102399 -0.136300 -8.550538 9.066660 -2.046800 -0.000000 -85.450201 8.579167 -0.535782 4.438425 12.834407 7.513182 -42.269963 1.404078 -1.664955 31.856869 -2.490155 -9.599760 -7.387146 -0.938400 0.000000 -5.310000
-10.745121 16.472679 -2.472723 160.322535 87.228898 170.664552 -11.304100 5.841638 0.480862 -4.611921 11.729424 1.023026 -1.120301 2.177796 32.880745 -0.050387 -9.243916 10.648726 -2.507100 -0.000000 -86.114300 8.546070 -0.450105 4.346001 13.254004 7.793422 -42.370379 1.301594 -1.808568 34.047128 -2.598150 -9.858807 -8.602514 -0.680500 -0.000000 -3.992800
-10.587897 16.439629 -2.467351 167.313699 87.345112 177.428336 -11.543500 5.904219 0.383804 -3.625076 12.122214 -0.078002 -0.932480 2.387566 35.804917 0.058811 -9.812881 12.259649 -2.987100 -0.000000 -85.762200 8.467030 -0.356408 4.195686 13.797324 7.995491 -42.323069 1.223149 -1.932279 36.179680 -2.696029 -10.044254 -9.981756 -0.368600 -0.000000 -2.672200
-10.437922 16.404127 -2.462303 174.646687 87.412662 -175.531090 -11.841732 5.931594 0.254476 -2.579142 12.522224 -1.195152 -0.741094 2.601719 38.848339 0.187493 -10.151329 13.821686 -3.429300 -0.000001 -84.330800 8.328254 -0.277667 3.987511 14.460144 8.083323 -42.106312 1.170005 -2.036680 38.194927 -2.786728 -10.172191 -11.468994 -0.018400 -0.000000 -1.349700
-10.294852 16.366192 -2.456925 -178.315832 87.371350 -168.850394 -12.181372 5.904693 0.099780 -1.502857 12.886617 -2.309752 -0.541842 2.813835 41.985586 0.329088 -10.144545 15.239625 -3.755600 -0.000000 -81.825100 8.137532 -0.238015 3.727427 15.219695 8.018078 -41.724164 1.142438 -2.129058 40.049694 -2.872439 -10.255017 -13.010094 0.354600 0.000000 -0.042200
-10.157982 16.326081 -2.450843 -171.977928 87.194527 -162.924272 -12.534718 5.816226 -0.073950 -0.408144 13.191303 -3.424293 -0.333271 3.022265 45.195425 0.477716 -9.700481 16.416363 -3.888000 0.000000 -78.353300 7.914547 -0.247793 3.427026 16.063321 7.791204 -41.190137 1.139452 -2.214892 41.705849 -2.955758 -10.312574 -14.548610 -179.265700 0.000000 -1.220700
-10.026368 16.284316 -2.443553 -166.622442 86.886900 -158.019846 -12.871876 5.672616 -0.258953 0.681341 13.419426 -4.549849 -0.117228 3.229989 48.449722 0.629688 -8.752919 17.260218 -3.762600 -0.000000 -74.102300 7.685277 -0.301344 3.098524 16.968169 7.409511 -40.529379 1.157240 -2.296504 43.145619 -3.036839 -10.356572 -16.037465 -178.892400 0.000000 -2.404000
-9.898908 16.241631 -2.435033 -162.185722 86.477263 -154.053903 -13.183268 5.486401 -0.447425 1.753360 13.572134 -5.706824 0.103930 3.442036 51.718058 0.784428 -7.287456 17.697433 -3.353800 -0.000000 -69.318400 7.459142 -0.388474 2.755752 17.919427 6.907171 -39.767479 1.191098 -2.371989 44.360084 -3.116753 -10.401432 -17.438129 -178.535300 0.000000 -3.481200
-9.774481 16.199023 -2.425019 -158.615624 85.998326 -150.954454 -13.462311 5.270703 -0.630173 2.776993 13.646852 -6.911475 0.328866 3.661112 54.963175 0.943088 -5.335819 17.676219 -2.679800 -0.000000 -64.243800 7.244618 -0.497684 2.411996 18.886706 6.317377 -38.940036 1.235645 -2.439942 45.361342 -3.194832 -10.449864 -18.730854 -178.199900 -0.000000 -4.437500
-9.652007 16.157616 -2.413018 -155.870989 85.486505 -148.661756 -13.702660 5.038318 -0.798131 3.707100 13.639057 -8.176011 0.556601 3.886817 58.145590 1.107719 -2.975742 17.173336 -1.802900 -0.000000 -59.079800 7.051885 -0.616997 2.079378 19.827153 5.670385 -38.088097 1.285540 -2.499718 46.177501 -3.268984 -10.494786 -19.913222 -177.888900 0.000000 -5.271899
-9.530539 16.118643 -2.399155 -153.756057 84.972530 -146.962571 -13.908996 4.796807 -0.944863 4.521755 13.555763 -9.512231 0.786314 4.115877 61.228961 1.279659 -0.334756 16.192608 -0.823600 0.000000 -53.969301 6.878956 -0.740845 1.771036 20.717921 5.011942 -37.243224 1.337622 -2.550914 46.832739 -3.339727 -10.536776 -20.990475 -177.602400 -0.000000 -6.002600
-9.409275 16.083325 -2.383505 -152.128621 84.482969 -145.699880 -14.083591 4.551738 -1.065509 5.199185 13.403786 -10.926558 1.015946 4.342709 64.176917 1.458387 2.437739 14.767390 0.143300 -0.000000 -48.994700 6.725948 -0.864729 1.498235 21.537647 4.383769 -36.433258 1.389716 -2.594135 47.354249 -3.407154 -10.572582 -21.975611 -177.338900 -0.000000 -6.656000
-9.287651 16.052808 -2.366622 -150.799914 84.035500 -144.673360 -14.233567 4.304342 -1.157802 5.739131 13.196432 -12.421838 1.242365 4.560930 66.956886 1.640512 5.181882 12.955963 0.987400 0.000001 -44.195500 6.585916 -0.988536 1.271063 22.284841 3.832643 -35.671968 1.441445 -2.630183 47.758612 -3.473426 -10.606801 -22.881050 -177.095700 -0.000000 -7.261300
-9.165323 16.028088 -2.348599 -149.699145 83.648334 -143.805347 -14.358305 4.057221 -1.220966 6.129498 12.942001 -13.991993 1.460450 4.763708 69.536070 1.820220 7.757818 10.838904 1.626400 -0.000000 -39.591400 6.460700 -1.109349 1.094393 22.947126 3.385559 -34.969099 1.492296 -2.660136 48.065350 -3.538148 -10.634315 -23.721050 -176.870900 -0.000000 -7.843700
-9.042134 16.009977 -2.329890 -148.715151 83.331475 -142.981501 -14.461170 3.809939 -1.255781 6.377772 12.652110 -15.627596 1.664352 4.944899 71.885893 1.989110 10.044434 8.507984 2.012500 -0.000000 -35.197901 6.345966 -1.227841 0.971148 23.529118 3.067180 -34.319830 1.543121 -2.684593 48.278679 -3.602189 -10.656778 -24.501973 -176.663100 0.000001 -8.418800
-8.918209 15.999111 -2.310360 -147.829660 83.097593 -142.187866 -14.538583 3.564500 -1.265327 6.477946 12.333109 -17.306922 1.846965 5.099116 73.977639 2.137778 11.956903 6.059710 2.139000 -0.000000 -31.037200 6.246219 -1.341226 0.897146 24.019944 2.876086 -33.713466 1.594307 -2.703906 48.403848 -3.663131 -10.665135 -25.228296 -176.473600 0.000000 -8.993200
